<svg width="160" height="39" viewBox="0 0 160 39" fill="none" xmlns="http://www.w3.org/2000/svg">
<path d="M49.2271 31.549C42.6601 31.281 41.5241 26.881 43.6051 22.181C44.1853 20.7222 45.201 19.4776 46.5138 18.6168C47.8267 17.7559 49.373 17.3205 50.9421 17.37C52.5876 17.3228 54.2043 17.8086 55.5511 18.755C56.1185 19.2004 56.5663 19.7798 56.8542 20.4413C57.142 21.1027 57.2609 21.8252 57.2001 22.544H52.9531C52.9031 21.544 52.5951 20.838 50.9691 20.789C48.3001 20.703 47.6381 22.549 47.1621 24.862C46.7551 26.839 47.3621 28.415 49.4941 28.415C50.1619 28.4707 50.8272 28.2823 51.3666 27.8847C51.9059 27.4871 52.2828 26.9073 52.4271 26.253H56.7971C56.3121 29.378 53.1481 31.553 49.5831 31.553C49.4641 31.553 49.3461 31.553 49.2261 31.553" fill="#1F1B41"/>
<path d="M155.627 18.3437L154.982 20.5437C154.745 19.7813 154.257 19.1213 153.598 18.6703C152.939 18.2194 152.147 18.0039 151.351 18.0587C147.551 17.9357 144.451 21.6077 144.151 25.6417C143.903 29.0417 144.799 31.2937 148.323 31.5417C148.393 31.5467 148.461 31.5487 148.523 31.5497C150.23 31.388 151.811 30.5777 152.939 29.2857L152.423 31.1307H156.023L159.193 18.3417L155.627 18.3437ZM153.827 25.2187C153.181 27.3957 151.888 28.2007 149.92 27.9307C148.32 27.7117 148.003 25.9577 148.42 24.3957C148.586 23.6 149.014 22.8832 149.637 22.3603C150.259 21.8373 151.039 21.5384 151.851 21.5117C151.937 21.5117 152.023 21.5117 152.109 21.5227C153.978 21.6847 154.309 23.6037 153.828 25.2227" fill="#1F1B41"/>
<path d="M84.7623 31.1398L84.1553 18.1978H87.9503L88.0363 26.1908L92.4723 18.1978H96.8533L88.9073 31.1398H84.7623Z" fill="#1F1B41"/>
<path d="M106.443 18.3467L105.798 20.5467C105.56 19.7842 105.073 19.1243 104.413 18.6735C103.754 18.2228 102.962 18.0076 102.165 18.0627C98.3653 17.9397 95.2652 21.6117 94.9702 25.6457C94.7222 29.0457 95.6182 31.2977 99.1422 31.5457C99.2092 31.5457 99.2772 31.5527 99.3482 31.5527C101.056 31.391 102.636 30.5807 103.764 29.2887L103.248 31.1337H106.848L110.015 18.3467H106.443ZM104.643 25.2217C103.997 27.3987 102.705 28.2037 100.736 27.9337C99.1363 27.7147 98.8183 25.9607 99.2363 24.3987C99.4032 23.6019 99.8332 22.8845 100.457 22.3616C101.081 21.8387 101.863 21.5408 102.676 21.5157C102.762 21.5157 102.846 21.519 102.929 21.5257C104.798 21.6877 105.129 23.6067 104.648 25.2257" fill="#1F1B41"/>
<path d="M69.5474 18.348L68.9024 20.548C68.6639 19.7855 68.175 19.1258 67.515 18.6757C66.8549 18.2256 66.0623 18.0115 65.2654 18.068C61.4654 17.945 58.3654 21.617 58.0704 25.651C57.8224 29.051 58.7174 31.303 62.2414 31.551C62.3084 31.551 62.3774 31.558 62.4414 31.559C64.1489 31.3973 65.7294 30.587 66.8574 29.295L66.3474 31.137H69.9474L73.1214 18.348H69.5474ZM67.7474 25.226C67.1014 27.403 65.8094 28.208 63.8404 27.938C62.2404 27.715 61.9224 25.961 62.3404 24.399C62.5084 23.603 62.9389 22.8865 63.5629 22.3646C64.1869 21.8427 64.9682 21.5456 65.7814 21.521C65.8667 21.521 65.951 21.5243 66.0344 21.531C67.9034 21.693 68.2344 23.612 67.7534 25.231" fill="#1F1B41"/>
<path d="M72.2729 31.1399L75.512 18.3769H79.4819L79.1189 20.1899C79.4875 19.5156 80.059 18.9745 80.7524 18.6433C81.4458 18.3121 82.2259 18.2077 82.9819 18.3449L82.289 21.9619C79.646 21.9319 78.564 22.5099 77.81 25.5139L76.4 31.1399H72.2729Z" fill="#1F1B41"/>
<path d="M137.68 31.1386L138.93 24.3486C139.548 20.9876 135.836 20.3706 134.966 24.6876L133.672 31.1396H130.082L131.497 24.2786C132.142 21.1496 128.443 20.1226 127.451 24.6876L126.051 31.1396H122.501L125.251 18.3026H128.568L128.308 20.5196C129.758 17.2706 135.915 16.9416 135.92 20.7126C136.246 19.9858 136.759 19.3585 137.407 18.8948C138.055 18.4312 138.814 18.1478 139.607 18.0736C143.795 18.0606 143.447 21.2896 142.707 25.0476C142.307 27.0696 141.964 29.1096 141.59 31.1376L137.68 31.1386Z" fill="#1F1B41"/>
<path d="M109.871 28.5879L114.055 11.2769H117.974L114.234 26.5399C114.023 27.3989 113.922 27.7809 114.88 27.8079L114.249 31.0689L111.426 31.0779H111.411C109.579 31.0779 109.555 29.9069 109.873 28.5899L109.871 28.5879Z" fill="#1F1B41"/>
<path d="M116.102 31.1381L119.171 18.5381H122.925L119.859 31.1381H116.102Z" fill="#1F1B41"/>
<path d="M119.603 14.3141C119.685 13.671 119.999 13.08 120.485 12.6516C120.972 12.2232 121.598 11.987 122.246 11.9871C122.533 11.9788 122.817 12.0385 123.077 12.1611C123.336 12.2837 123.562 12.4659 123.738 12.6928C123.913 12.9196 124.033 13.1847 124.086 13.4665C124.14 13.7482 124.126 14.0387 124.046 14.3141C123.991 14.9682 123.694 15.5782 123.213 16.0252C122.732 16.4722 122.102 16.7242 121.446 16.7321C119.993 16.7321 119.395 15.6491 119.603 14.3141Z" fill="#1F1B41"/>
<path d="M155.591 13.913C155.591 13.5265 155.706 13.1486 155.92 12.8272C156.135 12.5057 156.44 12.2551 156.797 12.107C157.154 11.959 157.547 11.9201 157.926 11.9954C158.305 12.0707 158.653 12.2567 158.927 12.53C159.2 12.8032 159.386 13.1514 159.462 13.5304C159.537 13.9095 159.499 14.3024 159.351 14.6595C159.203 15.0166 158.952 15.3219 158.631 15.5366C158.31 15.7514 157.932 15.866 157.545 15.866C157.027 15.866 156.53 15.6601 156.164 15.2937C155.797 14.9272 155.591 14.4312 155.591 13.913ZM155.96 13.912C155.96 14.2263 156.053 14.5335 156.228 14.7947C156.403 15.0559 156.651 15.2593 156.941 15.379C157.232 15.4987 157.552 15.5293 157.86 15.467C158.168 15.4047 158.45 15.2523 158.671 15.029H158.327L158.018 14.543C157.928 14.403 157.854 14.296 157.795 14.222C157.752 14.1618 157.7 14.1091 157.639 14.066C157.596 14.0374 157.548 14.0161 157.498 14.003C157.441 13.9942 157.384 13.9905 157.326 13.992H156.968V15.029H156.659V12.692H157.698C157.859 12.6853 158.021 12.7069 158.174 12.756C158.283 12.799 158.374 12.8772 158.432 12.978C158.498 13.0837 158.532 13.2056 158.532 13.33C158.534 13.4071 158.521 13.4838 158.493 13.5557C158.465 13.6277 158.424 13.6934 158.37 13.749C158.234 13.8767 158.057 13.9533 157.87 13.966C157.938 13.9959 158.001 14.035 158.057 14.082C158.156 14.1744 158.243 14.2789 158.315 14.393L158.703 15.001C158.881 14.8127 159.009 14.5839 159.078 14.3345C159.146 14.0852 159.153 13.8228 159.096 13.5704C159.04 13.3179 158.923 13.0831 158.756 12.8862C158.588 12.6894 158.374 12.5367 158.134 12.4413C157.894 12.3459 157.634 12.3107 157.376 12.339C157.119 12.3672 156.873 12.4578 156.659 12.6031C156.445 12.7483 156.27 12.9437 156.149 13.1722C156.028 13.4007 155.964 13.6554 155.964 13.914M156.97 13.725H157.635C157.747 13.7287 157.859 13.7131 157.966 13.679C158.041 13.6537 158.104 13.6045 158.147 13.539C158.187 13.4795 158.208 13.4102 158.21 13.339C158.212 13.2876 158.202 13.2365 158.181 13.1894C158.16 13.1424 158.129 13.1005 158.09 13.067C157.981 12.987 157.846 12.949 157.71 12.96H156.97V13.725Z" fill="#1F1B41"/>
<path fill-rule="evenodd" clip-rule="evenodd" d="M13.3372 1L13.4732 0H4.70022C4.70022 0 4.64422 0.371 4.54822 1H13.3372ZM1.47327 21C1.51127 20.782 1.56727 20.436 1.63727 20H4.26947L4.03871 21H1.47327ZM3.80304 22.0212H1.26707C1.22532 22.3661 1.20047 22.6951 1.18457 23.0152H3.57367L3.80304 22.0212ZM3.34429 24.0091H1.25319C1.26811 24.3427 1.30631 24.6748 1.3675 25.0031H3.11492L3.34429 24.0091ZM10.3745 25.0031L10.623 24.0091H29.4774L29.2934 25.0031H10.3745ZM2.88554 25.997H1.68155C1.82505 26.3541 2.01884 26.6888 2.25705 26.991H2.65617L2.88554 25.997ZM9.8775 26.991L10.126 25.997H29.1093L28.9252 26.991H9.8775ZM9.38052 28.9789L9.62901 27.9849H28.7412L28.5571 28.9789H9.38052ZM10.8715 23.0152L11.097 22.1131C11.1047 22.0821 11.1124 22.0515 11.1199 22.0212H29.8456L29.6615 23.0152H10.8715ZM11.7671 12.5079L11.8362 12H2.87822L2.83803 12.2662L2.83803 12.2662C2.801 12.5121 2.76419 12.7566 2.72522 13H8.3754C8.40226 12.9883 8.42922 12.9768 8.45628 12.9654C9.28196 12.6198 10.2338 12.5308 11.7671 12.5079ZM6.80469 14H2.57221C2.55582 14.1069 2.53982 14.2133 2.5239 14.3191C2.48934 14.549 2.45518 14.7761 2.41821 15H5.89992C5.90045 14.9993 5.90098 14.9985 5.9015 14.9978C6.16541 14.6307 6.46869 14.2963 6.80469 14ZM5.35518 16H2.26328C2.2299 16.2172 2.19692 16.4293 2.16459 16.6373L2.10828 17H5.00978C5.12054 16.6245 5.23269 16.2953 5.35518 16ZM4.74124 18H1.95326C1.89726 18.358 1.84526 18.69 1.79626 19H4.5011C4.58553 18.6389 4.66468 18.3068 4.74124 18ZM3.71992 6.48878L3.71987 6.48911C3.69432 6.65795 3.66852 6.82846 3.64221 7H12.5192L12.6552 6H3.79421C3.7696 6.16046 3.74499 6.32311 3.72014 6.48734L3.72009 6.48768L3.72007 6.48781L3.71992 6.48878ZM4.05649 4.28695L4.10024 4H12.9302L12.7932 5H3.94824C3.98494 4.75581 4.02114 4.5186 4.05649 4.28695ZM4.3488 2.33598L4.3488 2.33597C4.36664 2.22075 4.38396 2.10887 4.40027 2H13.2003L13.0623 3H4.24927C4.28218 2.76637 4.31635 2.54566 4.3488 2.33598ZM3.49028 8L3.4628 8.18163L3.46278 8.18178C3.42186 8.45246 3.38057 8.72556 3.33728 9H12.2453L12.3823 8H3.49028ZM3.18425 10L3.03125 11H11.9732L12.1093 10H3.18425ZM23.6603 4L22.8603 9H13.7002L14.5002 4H23.6603Z" fill="#1F1B41"/>
<path fill-rule="evenodd" clip-rule="evenodd" d="M13.4483 12C13.4949 12 13.5418 12 13.5891 12H24.2763C25.232 12 25.9816 12 26.5772 12.051C27.1821 12.1029 27.682 12.2105 28.1184 12.4593C28.8561 12.8798 29.4159 13.5542 29.6932 14.3569C29.8573 14.8317 29.871 15.3427 29.8105 15.9469C29.7508 16.5417 29.6127 17.2785 29.4366 18.2178L28.9149 21H20.3596L20.521 20.3544C20.6064 20.0125 20.6622 19.7874 20.6898 19.6145C20.7168 19.4452 20.7061 19.3831 20.6982 19.3567C20.6622 19.2364 20.5823 19.1341 20.4744 19.07C20.4507 19.056 20.393 19.0305 20.2222 19.0156C20.0478 19.0005 19.8159 19 19.4635 19H15.7243C14.3612 19 13.8247 19.0092 13.3892 19.1888C12.9678 19.3626 12.602 19.6482 12.3312 20.0149C12.0514 20.3938 11.9123 20.912 11.5817 22.2344L9.47893 30.6456C9.39346 30.9875 9.33765 31.2126 9.31007 31.3855C9.28306 31.5548 9.29382 31.617 9.3017 31.6433C9.33768 31.7636 9.41757 31.8659 9.52552 31.93C9.54917 31.944 9.60685 31.9695 9.77768 31.9844C9.9521 31.9996 10.184 32 10.5364 32H15.9384C16.4378 32 16.6109 31.9973 16.7544 31.9663C17.2025 31.8698 17.5819 31.5736 17.7843 31.1622C17.8491 31.0305 17.8937 30.8633 18.0149 30.3787L18.1096 30H27.6403L26.6894 33.8038C26.6789 33.8459 26.6685 33.8876 26.6582 33.9288C26.2623 35.513 26.0269 36.4554 25.4967 37.1733C25.0094 37.8333 24.3508 38.3474 23.5923 38.6602C22.7673 39.0004 21.7959 39.0002 20.163 39C20.1205 39 20.0776 39 20.0342 39H4.97278C4.14875 39 3.49762 39 2.98062 38.9552C2.45479 38.9097 2.01138 38.8144 1.62522 38.588C0.982138 38.2109 0.502467 37.608 0.27968 36.8966C0.145903 36.4694 0.152776 36.0159 0.226623 35.4933C0.299229 34.9795 0.445643 34.345 0.630934 33.5421L3.80625 19.7824C3.81689 19.7363 3.82745 19.6906 3.83792 19.6452C4.41028 17.1642 4.73268 15.7667 5.49522 14.706C6.19656 13.7304 7.15458 12.9682 8.2629 12.5042C9.46795 11.9997 10.9022 11.9998 13.4483 12ZM13.5891 13C10.8617 13 9.64551 13.0095 8.64907 13.4267C7.71126 13.8193 6.90063 14.4642 6.30719 15.2897C5.67666 16.1668 5.39393 17.3497 4.78064 20.0073L1.61072 33.7436C1.41885 34.5751 1.28261 35.1674 1.21679 35.6332C1.1515 36.0953 1.16488 36.3771 1.23398 36.5977C1.3825 37.072 1.70228 37.474 2.13101 37.7253C2.33047 37.8423 2.60203 37.9187 3.06694 37.959C3.53567 37.9996 4.14344 38 4.99673 38H20.0342C21.8365 38 22.5925 37.9908 23.2111 37.7357C23.801 37.4924 24.3132 37.0925 24.6923 36.5792C25.0898 36.041 25.2821 35.3097 25.7192 33.5613L26.3596 31H18.889C18.8251 31.2424 18.7655 31.4331 18.6816 31.6037C18.3443 32.2893 17.712 32.7829 16.9651 32.9439C16.7038 33.0002 16.4158 33.0001 15.9961 33C15.9771 33 15.9579 33 15.9384 33H10.5148C10.1898 33 9.91398 33 9.69098 32.9806C9.45945 32.9605 9.22746 32.9159 9.01512 32.7899C8.69128 32.5977 8.45158 32.2907 8.34365 31.9299C8.27288 31.6933 8.28595 31.4575 8.32256 31.228C8.35781 31.0069 8.42473 30.7393 8.50355 30.424L10.6116 21.9918C10.6215 21.9524 10.6312 21.9134 10.6408 21.8749C10.9319 20.7095 11.1142 19.9795 11.5268 19.4208C11.9059 18.9075 12.4181 18.5076 13.008 18.2643C13.6501 17.9995 14.4025 17.9997 15.6037 18C15.6434 18 15.6836 18 15.7243 18H19.4851C19.8101 18 20.0859 18 20.3089 18.0194C20.5404 18.0396 20.7724 18.0841 20.9848 18.2101C21.3086 18.4023 21.5483 18.7093 21.6562 19.0701C21.727 19.3067 21.7139 19.5425 21.6773 19.772C21.666 19.8432 21.6514 19.9192 21.6341 20H28.085L28.4493 18.0569C28.6308 17.0891 28.7606 16.3944 28.8154 15.8472C28.8698 15.3042 28.8436 14.9601 28.7481 14.6835C28.55 14.1102 28.1502 13.6284 27.6232 13.3281C27.3689 13.1832 27.0355 13.094 26.4918 13.0474C25.9439 13.0004 25.2372 13 24.2525 13H13.5891Z" fill="#1F1B41"/>
<path d="M29.5083 32.5L32.0083 19L33.836 20.7202L31.4321 31.5381L29.5083 32.5Z" fill="#0089D1"/>
<path d="M32.5845 30.9619L34.6832 21.5176L36.3171 23.0553L34.807 29.8506L32.5845 30.9619Z" fill="#00023A"/>
<path d="M35.9595 29.2742L40.5082 26.9998L37.1643 23.8525L35.9595 29.2742Z" fill="#00023A"/>
</svg>
