<svg width="157" height="94" viewBox="0 0 157 94" fill="none" xmlns="http://www.w3.org/2000/svg">
<path d="M3.42751 92.246C3.42751 91.885 3.03579 91.7271 2.13183 91.7271C0.70056 91.7271 0.0903924 91.351 0.0903924 90.441C0.0903924 89.5309 0.843693 89.0195 2.16197 89.0195C3.48025 89.0195 4.24108 89.5986 4.24108 90.4636H3.33712C3.33712 90.0875 2.87007 89.8318 2.16197 89.8318C1.45387 89.8318 0.994351 90.0424 0.994351 90.441C0.994351 90.8396 1.35594 90.9148 2.20717 90.9148C3.71377 90.9148 4.33148 91.321 4.33148 92.246C4.33148 93.1711 3.57817 93.7127 2.16197 93.7127C0.866292 93.7127 0 93.1335 0 92.2686H0.896418C0.896418 92.6522 1.40867 92.9004 2.16197 92.9004C2.91527 92.9004 3.42751 92.6672 3.42751 92.246Z" fill="#fff"/>
<path d="M7.81925 93.6224V89.1098H8.71568V93.6224H7.81925Z" fill="#fff"/>
<path d="M15.631 92.246C15.631 91.885 15.2393 91.7271 14.3353 91.7271C12.904 91.7271 12.2939 91.351 12.2939 90.441C12.2939 89.5309 13.0472 89.0195 14.3654 89.0195C15.6837 89.0195 16.4445 89.5986 16.4445 90.4636H15.5406C15.5406 90.0875 15.0735 89.8318 14.3654 89.8318C13.6573 89.8318 13.1903 90.0424 13.1903 90.441C13.1903 90.8396 13.5519 90.9148 14.4106 90.9148C15.9172 90.9148 16.5349 91.321 16.5349 92.246C16.5349 93.1711 15.7816 93.7127 14.3654 93.7127C13.0698 93.7127 12.2035 93.1335 12.2035 92.2686H13.0999C13.0999 92.6522 13.6121 92.9004 14.3654 92.9004C15.1187 92.9004 15.631 92.6672 15.631 92.246Z" fill="#fff"/>
<path d="M19.5256 89.1098H24.0454V89.922H22.2374V93.6224H21.3109V89.922H19.5105L19.5256 89.1098Z" fill="#fff"/>
<path d="M28.3316 89.922V90.96H30.9531V91.7572H28.3316V92.8101H31.8571V93.6224H27.4352V89.1098H31.8571V89.922H28.3316Z" fill="#fff"/>
<path d="M37.665 91.0051H37.7253L39.134 89.1098H39.9475V93.6224H39.0436V90.4636C38.9852 90.6439 38.8988 90.814 38.7874 90.9675L38.1547 91.8174H37.2507L36.6029 91.0051C36.4957 90.8502 36.4119 90.6804 36.3543 90.5012V93.66H35.4579V89.1474H36.2639L37.665 91.0051Z" fill="#fff"/>
<path d="M43.2545 93.6224L45.1001 89.1098H46.4561L48.3092 93.6224H47.3374L46.9608 92.7199H44.5803L44.2112 93.6224H43.2545ZM46.6293 91.9076L45.8157 89.922H45.7254L44.9118 91.9076H46.6293Z" fill="#fff"/>
<path d="M54.7273 92.246C54.7273 91.885 54.3356 91.7271 53.4316 91.7271C52.0003 91.7271 51.3902 91.351 51.3902 90.441C51.3902 89.5309 52.1058 89.0195 53.4617 89.0195C54.8177 89.0195 55.5409 89.5986 55.5409 90.4636H54.6369C54.6369 90.0875 54.1698 89.8318 53.4617 89.8318C52.7536 89.8318 52.2866 90.0424 52.2866 90.441C52.2866 90.8396 52.6482 90.9148 53.507 90.9148C55.0136 90.9148 55.6313 91.321 55.6313 92.246C55.6313 93.1711 54.8779 93.7127 53.4617 93.7127C52.1661 93.7127 51.2998 93.1335 51.2998 92.2686H52.1962C52.1962 92.6522 52.7084 92.9004 53.4617 92.9004C54.215 92.9004 54.7273 92.6672 54.7273 92.246Z" fill="#fff"/>
<path d="M64.6257 89.922V90.96H67.2622V91.7572H64.6257V92.8101H68.1511V93.6224H63.7217V89.1098H68.1511V89.922H64.6257Z" fill="#fff"/>
<path d="M79.8122 91.7572H80.8216C80.7199 92.3354 80.4047 92.8545 79.9384 93.2121C79.4721 93.5697 78.8884 93.7397 78.3026 93.6887C77.7169 93.6378 77.1715 93.3694 76.7742 92.9366C76.3769 92.5038 76.1565 91.9381 76.1565 91.351C76.1565 90.764 76.3769 90.1982 76.7742 89.7655C77.1715 89.3327 77.7169 89.0643 78.3026 89.0133C78.8884 88.9623 79.4721 89.1324 79.9384 89.49C80.4047 89.8476 80.7199 90.3667 80.8216 90.9449H79.8499C79.7851 90.6352 79.6144 90.3577 79.3669 90.16C79.1195 89.9624 78.8108 89.8569 78.4939 89.8619C78.0944 89.8619 77.7111 90.0203 77.4286 90.3024C77.1461 90.5845 76.9873 90.9671 76.9873 91.3661C76.9873 91.765 77.1461 92.1476 77.4286 92.4297C77.7111 92.7118 78.0944 92.8703 78.4939 92.8703C78.8082 92.8637 79.1106 92.7496 79.3506 92.5469C79.5906 92.3443 79.7536 92.0655 79.8122 91.7572Z" fill="#fff"/>
<path d="M88.7388 91.3661C88.7388 91.8302 88.601 92.2839 88.3427 92.6698C88.0845 93.0557 87.7174 93.3564 87.2879 93.534C86.8585 93.7116 86.3859 93.7581 85.93 93.6676C85.4741 93.577 85.0553 93.3535 84.7266 93.0254C84.3979 92.6972 84.1741 92.2791 84.0834 91.8239C83.9927 91.3687 84.0392 90.8969 84.2171 90.4681C84.395 90.0393 84.6963 89.6728 85.0828 89.415C85.4693 89.1571 85.9237 89.0195 86.3885 89.0195C86.7006 89.0068 87.0119 89.0588 87.3028 89.1722C87.5937 89.2856 87.858 89.458 88.0788 89.6785C88.2996 89.899 88.4723 90.1628 88.5859 90.4532C88.6995 90.7437 88.7516 91.0545 88.7388 91.3661ZM87.7897 91.3661C87.7692 91.0948 87.6699 90.8354 87.504 90.6196C87.3381 90.4038 87.1128 90.241 86.8557 90.1511C86.5985 90.0612 86.3207 90.0481 86.0562 90.1134C85.7917 90.1786 85.552 90.3195 85.3665 90.5187C85.1809 90.7179 85.0576 90.9668 85.0115 91.2349C84.9655 91.503 84.9987 91.7787 85.1072 92.0282C85.2156 92.2778 85.3946 92.4903 85.6222 92.6399C85.8497 92.7895 86.1161 92.8695 86.3885 92.8703C86.5817 92.8708 86.773 92.8315 86.9502 92.7547C87.1275 92.6779 87.2869 92.5653 87.4185 92.4241C87.5501 92.2828 87.651 92.1159 87.7149 91.9338C87.7787 91.7517 87.8042 91.5585 87.7897 91.3661Z" fill="#fff"/>
<path d="M93.123 90.5087V93.6224H92.2191V89.1098H93.0326L95.8349 92.2235V89.1098H96.7389V93.6224H95.9253L93.123 90.5087Z" fill="#fff"/>
<path d="M103.654 92.246C103.654 91.885 103.255 91.7271 102.351 91.7271C100.92 91.7271 100.31 91.351 100.31 90.441C100.31 89.5309 101.063 89.0195 102.389 89.0195C103.632 89.0195 104.468 89.5986 104.468 90.4636H103.564C103.564 90.0875 103.089 89.8318 102.389 89.8318C101.688 89.8318 101.214 90.0424 101.214 90.441C101.214 90.8396 101.575 90.9148 102.434 90.9148C103.94 90.9148 104.558 91.321 104.558 92.246C104.558 93.1711 103.805 93.7127 102.389 93.7127C100.972 93.7127 100.219 93.1335 100.219 92.2686H101.161C101.161 92.6522 101.665 92.9004 102.426 92.9004C103.187 92.9004 103.654 92.6672 103.654 92.246Z" fill="#fff"/>
<path d="M111.473 91.4563V89.1098H112.37V91.4563C112.387 91.751 112.344 92.0462 112.243 92.3236C112.142 92.6011 111.986 92.855 111.783 93.0698C111.58 93.2846 111.335 93.4557 111.064 93.5727C110.792 93.6897 110.5 93.75 110.204 93.75C109.908 93.75 109.616 93.6897 109.344 93.5727C109.073 93.4557 108.828 93.2846 108.626 93.0698C108.423 92.855 108.266 92.6011 108.165 92.3236C108.064 92.0462 108.021 91.751 108.038 91.4563V89.1098H108.942V91.4563C108.923 91.6339 108.941 91.8135 108.996 91.9835C109.051 92.1535 109.141 92.31 109.26 92.443C109.379 92.5759 109.526 92.6823 109.689 92.7551C109.852 92.8279 110.029 92.8655 110.208 92.8655C110.387 92.8655 110.564 92.8279 110.727 92.7551C110.89 92.6823 111.036 92.5759 111.156 92.443C111.275 92.31 111.365 92.1535 111.42 91.9835C111.475 91.8135 111.493 91.6339 111.473 91.4563Z" fill="#fff"/>
<path d="M116.084 89.1098H116.98V92.8101H119.692V93.6224H116.076L116.084 89.1098Z" fill="#fff"/>
<path d="M122.05 89.1098H126.57V89.922H124.762V93.6224H123.858V89.922H122.05V89.1098Z" fill="#fff"/>
<path d="M134.065 91.3661C134.065 91.8305 133.927 92.2845 133.668 92.6706C133.41 93.0566 133.042 93.3574 132.612 93.5348C132.182 93.7121 131.709 93.7582 131.253 93.667C130.797 93.5759 130.378 93.3516 130.05 93.0227C129.722 92.6938 129.498 92.2749 129.409 91.8193C129.319 91.3636 129.366 90.8915 129.545 90.4629C129.724 90.0342 130.027 89.6683 130.414 89.4113C130.802 89.1544 131.257 89.018 131.722 89.0195C132.034 89.0078 132.344 89.0606 132.634 89.1745C132.924 89.2884 133.187 89.461 133.407 89.6813C133.627 89.9017 133.799 90.1652 133.913 90.4551C134.026 90.745 134.078 91.0552 134.065 91.3661ZM133.123 91.3661C133.103 91.0948 133.004 90.8354 132.838 90.6196C132.672 90.4039 132.446 90.241 132.189 90.1511C131.932 90.0612 131.654 90.0481 131.39 90.1134C131.125 90.1786 130.886 90.3195 130.7 90.5187C130.515 90.7179 130.391 90.9668 130.345 91.2349C130.299 91.503 130.332 91.7787 130.441 92.0282C130.549 92.2778 130.728 92.4904 130.956 92.6399C131.183 92.7895 131.45 92.8695 131.722 92.8703C131.915 92.8709 132.107 92.8315 132.284 92.7547C132.461 92.6779 132.621 92.5653 132.752 92.4241C132.884 92.2828 132.985 92.1159 133.049 91.9338C133.112 91.7518 133.138 91.5585 133.123 91.3661Z" fill="#fff"/>
<path d="M137.553 89.1098H140.807C140.988 89.0988 141.169 89.1263 141.339 89.1904C141.508 89.2546 141.662 89.3539 141.79 89.4819C141.918 89.6099 142.018 89.7635 142.082 89.9328C142.146 90.102 142.174 90.2829 142.163 90.4636C142.173 90.7917 142.054 91.1109 141.832 91.3527C141.61 91.5944 141.301 91.7396 140.973 91.7572C141.036 91.8238 141.091 91.8969 141.138 91.9753L142.163 93.6149H141.138L139.993 91.7572H138.487V93.6074H137.583L137.553 89.1098ZM140.807 90.9599C140.867 90.9632 140.927 90.9538 140.984 90.9322C141.04 90.9107 141.091 90.8776 141.134 90.835C141.176 90.7924 141.21 90.7414 141.231 90.6851C141.253 90.6289 141.262 90.5688 141.259 90.5087V90.3733C141.262 90.3132 141.253 90.253 141.231 90.1968C141.21 90.1406 141.176 90.0895 141.134 90.047C141.091 90.0044 141.04 89.9713 140.984 89.9497C140.927 89.9282 140.867 89.9188 140.807 89.922H138.457V90.9599H140.807Z" fill="#fff"/>
<path d="M145.688 93.6224V89.1098H146.592V93.6224H145.688Z" fill="#fff"/>
<path d="M149.892 93.6224L151.745 89.1098H153.139L154.992 93.6224H154.012L153.643 92.7199H151.255L150.886 93.6224H149.892ZM153.267 91.9076L152.453 89.922H152.385L151.557 91.9076H153.267Z" fill="#fff"/>
<path d="M19.8043 67.4491V56.536C19.8043 55.8471 20.0778 55.1863 20.565 54.6985C21.0522 54.2107 21.7132 53.9357 22.4032 53.9337C22.7454 53.9337 23.0844 54.001 23.4006 54.1318C23.7168 54.2625 24.0041 54.4542 24.2462 54.6959C24.4882 54.9375 24.6802 55.2244 24.8112 55.5401C24.9422 55.8558 25.0096 56.1942 25.0096 56.536V67.4491C25.0096 74.9701 19.7365 80.453 12.5123 80.453C5.28817 80.453 0.0150572 74.9401 0.0150572 67.4491V56.536C0.0140661 56.1946 0.0805648 55.8564 0.210727 55.5407C0.34089 55.225 0.53216 54.9381 0.773588 54.6963C1.01502 54.4546 1.30185 54.2628 1.61765 54.1319C1.93345 54.001 2.27202 53.9337 2.61394 53.9337C3.30521 53.9337 3.96817 54.2078 4.45696 54.6959C4.94576 55.1839 5.22037 55.8458 5.22037 56.536V67.4491C5.22037 72.1347 8.29384 75.5116 12.5123 75.5116C16.7308 75.5116 19.8043 72.1347 19.8043 67.4491Z" fill="#1E539C"/>
<path d="M35.9324 61.9887V77.2866C35.9324 77.9875 35.6541 78.6597 35.1585 79.156C34.6628 79.6523 33.9903 79.9321 33.2884 79.934C32.6091 79.934 31.9576 79.6646 31.4773 79.1851C30.997 78.7055 30.7271 78.0551 30.7271 77.3769V56.5585C30.7271 56.2132 30.7954 55.8713 30.928 55.5523C31.0606 55.2333 31.2549 54.9436 31.4998 54.6998C31.7447 54.456 32.0355 54.2628 32.3553 54.1313C32.6751 53.9998 33.0178 53.9327 33.3637 53.9337H34.6594C34.8994 53.9328 35.1369 53.9826 35.3563 54.0798C35.5757 54.177 35.7721 54.3194 35.9324 54.4978L51.571 71.8715V56.5435C51.57 56.2011 51.6367 55.8619 51.7672 55.5453C51.8977 55.2287 52.0896 54.941 52.3317 54.6985C52.5738 54.4561 52.8615 54.2637 53.1782 54.1325C53.4949 54.0012 53.8345 53.9337 54.1774 53.9337C54.5183 53.9327 54.8561 53.9989 55.1714 54.1285C55.4866 54.258 55.7732 54.4485 56.0146 54.6888C56.256 54.9291 56.4476 55.2147 56.5783 55.5291C56.709 55.8435 56.7763 56.1805 56.7763 56.5209V77.3769C56.7763 78.0551 56.5064 78.7055 56.0261 79.1851C55.5458 79.6646 54.8943 79.934 54.215 79.934H52.8214C52.5908 79.9332 52.363 79.8839 52.1527 79.7893C51.9424 79.6947 51.7545 79.5569 51.6011 79.385L35.9324 61.9887Z" fill="#1E539C"/>
<path d="M62.5014 77.3318V56.536C62.5014 55.8471 62.7749 55.1863 63.2621 54.6985C63.7493 54.2107 64.4103 53.9357 65.1003 53.9337C65.7915 53.9337 66.4545 54.2078 66.9433 54.6959C67.4321 55.1839 67.7067 55.8458 67.7067 56.536V77.3318C67.7067 78.0219 67.4321 78.6838 66.9433 79.1719C66.4545 79.6599 65.7915 79.934 65.1003 79.934C64.4103 79.9321 63.7493 79.657 63.2621 79.1692C62.7749 78.6814 62.5014 78.0206 62.5014 77.3318Z" fill="#1E539C"/>
<path d="M74.0419 53.9337H95.4281C96.0275 53.9337 96.6023 54.1714 97.0261 54.5945C97.4499 55.0177 97.688 55.5916 97.688 56.19C97.688 56.51 97.6249 56.8269 97.5022 57.1225C97.3796 57.4182 97.1998 57.6868 96.9732 57.9131C96.7465 58.1394 96.4775 58.3189 96.1814 58.4413C95.8852 58.5638 95.5679 58.6268 95.2473 58.6268H87.2398V77.2716C87.2398 77.9751 86.9609 78.6501 86.464 79.1489C85.9672 79.6478 85.2928 79.9301 84.5881 79.934C83.9142 79.9321 83.2685 79.6633 82.7926 79.1868C82.3167 78.7103 82.0495 78.0648 82.0495 77.3919V58.5892H73.9139C73.3145 58.5892 72.7397 58.3515 72.3159 57.9284C71.8921 57.5052 71.654 56.9313 71.654 56.3329C71.6539 55.6992 71.9051 55.0912 72.3525 54.6417C72.7999 54.1922 73.4072 53.9376 74.0419 53.9337Z" fill="#1E539C"/>
<path d="M132.174 79.934C131.515 79.934 130.883 79.6726 130.416 79.2071C129.95 78.7416 129.688 78.1103 129.688 77.4521V55.7387C129.688 55.26 129.879 54.8009 130.218 54.4624C130.557 54.1238 131.017 53.9337 131.496 53.9337H148.317C150.394 53.9215 152.391 54.7273 153.876 56.1761C155.361 57.625 156.214 59.6001 156.25 61.6729C156.287 66.1855 153.154 69.2842 148.438 69.2842H134.879V77.2114C134.879 77.9296 134.594 78.6187 134.088 79.1287C133.581 79.6386 132.893 79.9281 132.174 79.934ZM134.901 64.591H148.461C149.15 64.591 149.812 64.3179 150.301 63.8315C150.789 63.3451 151.065 62.6851 151.067 61.9963V61.2442C151.067 60.554 150.792 59.8921 150.304 59.4041C149.815 58.916 149.152 58.6419 148.461 58.6419H134.901V64.591Z" fill="#1E539C"/>
<path d="M120.521 64.4632C120.162 63.6776 119.715 62.9357 119.187 62.252L121.545 57.4761C123.156 58.7917 124.431 60.4696 125.266 62.3723L120.521 64.4632Z" fill="#1E539C"/>
<path d="M111.639 80.1221C105.967 80.3176 101.191 75.6094 100.98 69.5474C100.769 63.4854 105.198 58.4538 110.871 58.2658C112.541 58.2064 114.199 58.5767 115.684 59.3413L119.187 55.9117C117.135 54.8313 114.848 54.2708 112.528 54.2796C104.995 54.2796 98.818 60.1085 98.818 67.2986C98.818 74.4888 104.069 80.1221 111.639 80.1221Z" fill="#1E539C"/>
<path d="M113.967 69.7054C113.758 69.978 113.498 70.2069 113.2 70.379C112.903 70.5511 112.575 70.663 112.234 70.7084C111.893 70.7538 111.547 70.7318 111.215 70.6435C110.883 70.5553 110.571 70.4027 110.298 70.1943C110.025 69.9858 109.796 69.7258 109.624 69.4289C109.451 69.1321 109.339 68.8042 109.294 68.4641C109.248 68.124 109.27 67.7783 109.359 67.4467C109.447 67.1151 109.6 66.8041 109.809 66.5315C111.715 64.0495 122.502 54.0014 122.502 54.0014L113.967 69.7054Z" fill="#1E539C"/>
<path d="M116.758 49.5489L26.6025 48.4208L116.758 47.2926C117.057 47.2926 117.345 47.4115 117.557 47.6231C117.768 47.8346 117.888 48.1216 117.888 48.4208C117.888 48.72 117.768 49.0069 117.557 49.2185C117.345 49.4301 117.057 49.5489 116.758 49.5489Z" fill="#F7BA25"/>
<path d="M48.275 41.4713C47.5867 41.4713 46.9138 41.6751 46.3415 42.0569C45.7691 42.4387 45.3231 42.9814 45.0596 43.6163C44.7962 44.2512 44.7273 44.9499 44.8616 45.6239C44.9959 46.298 45.3273 46.9171 45.8141 47.4031C46.3008 47.889 46.9209 48.2199 47.596 48.354C48.2711 48.4881 48.9709 48.4193 49.6068 48.1563C50.2427 47.8933 50.7863 47.4479 51.1687 46.8765C51.5511 46.3051 51.7552 45.6333 51.7552 44.946C51.7552 44.0245 51.3886 43.1407 50.7359 42.489C50.0832 41.8374 49.198 41.4713 48.275 41.4713ZM49.2015 44.946C49.2015 45.1231 49.149 45.2961 49.0505 45.4433C48.952 45.5905 48.812 45.7052 48.6482 45.7729C48.4844 45.8407 48.3041 45.8584 48.1302 45.8239C47.9563 45.7893 47.7966 45.7041 47.6712 45.5789C47.5459 45.4537 47.4605 45.2943 47.4259 45.1207C47.3913 44.947 47.4091 44.7671 47.4769 44.6035C47.5448 44.44 47.6597 44.3002 47.8071 44.2019C47.9545 44.1035 48.1278 44.051 48.3051 44.051C48.5429 44.051 48.7709 44.1453 48.939 44.3132C49.1071 44.481 49.2015 44.7087 49.2015 44.946Z" fill="#489742"/>
<path d="M55.4464 34.409C54.7516 34.4107 54.0731 34.6191 53.4975 35.0076C52.9219 35.3961 52.4753 35.9471 52.2147 36.5901H44.3277C44.0267 35.8409 43.4738 35.2197 42.764 34.8332C42.0541 34.4467 41.2317 34.319 40.4378 34.472C39.6439 34.6251 38.9282 35.0493 38.4135 35.6719C37.8989 36.2944 37.6174 37.0765 37.6174 37.8838C37.6174 38.691 37.8989 39.4731 38.4135 40.0956C38.9282 40.7182 39.6439 41.1424 40.4378 41.2955C41.2317 41.4485 42.0541 41.3208 42.764 40.9343C43.4738 40.5478 44.0267 39.9266 44.3277 39.1774H52.2147C52.4501 39.7632 52.8408 40.2739 53.3449 40.6547C53.849 41.0355 54.4474 41.2721 55.076 41.3389C55.7046 41.4058 56.3396 41.3005 56.9127 41.0343C57.4859 40.7681 57.9756 40.351 58.3293 39.8279C58.683 39.3048 58.8873 38.6954 58.9203 38.0651C58.9533 37.4349 58.8138 36.8075 58.5166 36.2504C58.2195 35.6934 57.776 35.2276 57.2337 34.9032C56.6915 34.5788 56.071 34.4079 55.4389 34.409H55.4464ZM56.3353 37.8838C56.3353 38.0611 56.2825 38.2344 56.1837 38.3818C56.0848 38.5291 55.9444 38.6438 55.7802 38.7113C55.6159 38.7788 55.4353 38.7961 55.2612 38.761C55.0871 38.7258 54.9274 38.6398 54.8023 38.5139C54.6773 38.388 54.5925 38.2278 54.5588 38.0537C54.525 37.8796 54.5439 37.6994 54.6129 37.536C54.6819 37.3726 54.7979 37.2333 54.9463 37.1359C55.0947 37.0385 55.2688 36.9873 55.4464 36.9887C55.5638 36.9887 55.68 37.0119 55.7883 37.057C55.8967 37.1021 55.995 37.1681 56.0776 37.2513C56.1603 37.3345 56.2256 37.4333 56.2698 37.5418C56.314 37.6504 56.3363 37.7666 56.3353 37.8838ZM42.0226 37.8838C42.0226 38.0611 41.9698 38.2344 41.871 38.3818C41.7721 38.5291 41.6317 38.6438 41.4674 38.7113C41.3032 38.7788 41.1226 38.7961 40.9485 38.761C40.7744 38.7258 40.6147 38.6398 40.4896 38.5139C40.3646 38.388 40.2798 38.2278 40.246 38.0537C40.2123 37.8796 40.2311 37.6994 40.3001 37.536C40.3691 37.3726 40.4852 37.2333 40.6336 37.1359C40.782 37.0385 40.9561 36.9873 41.1337 36.9887C41.3668 36.9947 41.5883 37.0918 41.7503 37.2592C41.9124 37.4266 42.002 37.6509 42 37.8838H42.0226Z" fill="#F7BA25"/>
<path d="M80.9231 25.8726C80.2308 25.8773 79.5556 26.0871 78.983 26.4754C78.4103 26.8637 77.966 27.413 77.7065 28.0537H63.3938C63.1158 27.1533 62.5562 26.3656 61.7969 25.8061C61.0377 25.2465 60.1189 24.9446 59.1753 24.9446C58.2316 24.9446 57.3128 25.2465 56.5536 25.8061C55.7944 26.3656 55.2348 27.1533 54.9568 28.0537H49.9549C49.6987 27.4098 49.2547 26.8576 48.6806 26.4685C48.1064 26.0794 47.4284 25.8713 46.7345 25.8713C46.0406 25.8713 45.3626 26.0794 44.7885 26.4685C44.2143 26.8576 43.7704 27.4098 43.5141 28.0537H38.241C37.9407 27.3017 37.3873 26.6777 36.676 26.2889C35.9647 25.9002 35.1399 25.7711 34.3436 25.9238C33.5473 26.0765 32.8291 26.5014 32.3126 27.1255C31.7961 27.7497 31.5136 28.534 31.5136 29.3436C31.5136 30.1532 31.7961 30.9375 32.3126 31.5616C32.8291 32.1857 33.5473 32.6107 34.3436 32.7633C35.1399 32.916 35.9647 32.7869 36.676 32.3982C37.3873 32.0095 37.9407 31.3854 38.241 30.6334H43.5141C43.7704 31.2773 44.2143 31.8296 44.7885 32.2187C45.3626 32.6078 46.0406 32.8158 46.7345 32.8158C47.4284 32.8158 48.1064 32.6078 48.6806 32.2187C49.2547 31.8296 49.6987 31.2773 49.9549 30.6334H54.9869C55.2649 31.5338 55.8245 32.3215 56.5837 32.8811C57.3429 33.4406 58.2617 33.7425 59.2054 33.7425C60.1491 33.7425 61.0679 33.4406 61.8271 32.8811C62.5863 32.3215 63.1459 31.5338 63.4239 30.6334H77.7366C77.9719 31.2176 78.3621 31.7268 78.8652 32.1063C79.3684 32.4858 79.9656 32.7214 80.5927 32.7877C81.2198 32.8541 81.8532 32.7486 82.4248 32.4828C82.9965 32.217 83.4848 31.8007 83.8375 31.2788C84.1902 30.7568 84.3938 30.1488 84.4266 29.52C84.4594 28.8913 84.32 28.2654 84.0236 27.7097C83.7271 27.154 83.2846 26.6894 82.7437 26.3658C82.2028 26.0421 81.5838 25.8716 80.9532 25.8726H80.9231ZM81.8195 29.3323C81.8195 29.5093 81.7669 29.6823 81.6684 29.8295C81.5699 29.9767 81.4299 30.0914 81.2661 30.1592C81.1023 30.2269 80.9221 30.2446 80.7482 30.2101C80.5743 30.1756 80.4146 30.0903 80.2892 29.9651C80.1638 29.84 80.0784 29.6805 80.0439 29.5069C80.0093 29.3333 80.027 29.1533 80.0949 28.9898C80.1627 28.8262 80.2776 28.6865 80.425 28.5881C80.5725 28.4898 80.7458 28.4373 80.9231 28.4373C81.1608 28.4373 81.3888 28.5316 81.5569 28.6994C81.725 28.8673 81.8195 29.0949 81.8195 29.3323ZM61.0133 29.3323C61.0133 29.6938 60.906 30.0471 60.7048 30.3477C60.5037 30.6482 60.2178 30.8825 59.8833 31.0208C59.5488 31.1591 59.1808 31.1953 58.8257 31.1248C58.4706 31.0543 58.1444 30.8802 57.8884 30.6246C57.6324 30.369 57.4581 30.0434 57.3875 29.6888C57.3168 29.3343 57.3531 28.9668 57.4916 28.6329C57.6302 28.2989 57.8648 28.0135 58.1658 27.8127C58.4669 27.6118 58.8208 27.5047 59.1828 27.5047C59.6683 27.5047 60.1339 27.6972 60.4772 28.04C60.8205 28.3827 61.0133 28.8476 61.0133 29.3323ZM46.7006 30.2273C46.4629 30.2273 46.2349 30.133 46.0667 29.9651C45.8986 29.7973 45.8042 29.5697 45.8042 29.3323C45.8042 29.0949 45.8986 28.8673 46.0667 28.6994C46.2349 28.5316 46.4629 28.4373 46.7006 28.4373C46.9384 28.4373 47.1664 28.5316 47.3345 28.6994C47.5026 28.8673 47.597 29.0949 47.597 29.3323C47.597 29.5697 47.5026 29.7973 47.3345 29.9651C47.1664 30.133 46.9384 30.2273 46.7006 30.2273ZM35.8907 29.3323C35.9179 29.4625 35.9157 29.5971 35.8842 29.7264C35.8527 29.8556 35.7927 29.9762 35.7087 30.0794C35.6246 30.1827 35.5186 30.2658 35.3982 30.323C35.2779 30.3801 35.1464 30.4098 35.0131 30.4098C34.8799 30.4098 34.7484 30.3801 34.6281 30.323C34.5077 30.2658 34.4017 30.1827 34.3177 30.0794C34.2336 29.9762 34.1736 29.8556 34.1421 29.7264C34.1106 29.5971 34.1084 29.4625 34.1356 29.3323C34.1356 29.0949 34.23 28.8673 34.3981 28.6994C34.5662 28.5316 34.7942 28.4373 35.032 28.4373C35.2697 28.4373 35.4977 28.5316 35.6659 28.6994C35.834 28.8673 35.9284 29.0949 35.9284 29.3323H35.8907Z" fill="#1E539C"/>
<path d="M86.6707 16.2757C85.9772 16.2789 85.3004 16.488 84.7262 16.8764C84.1521 17.2648 83.7067 17.8149 83.4466 18.4568H81.7592C81.5014 17.8135 81.0564 17.2622 80.4818 16.8738C79.9071 16.4854 79.229 16.2778 78.5351 16.2778C77.8411 16.2778 77.1631 16.4854 76.5884 16.8738C76.0137 17.2622 75.5688 17.8135 75.311 18.4568H73.2469C72.9585 17.2216 72.26 16.1201 71.265 15.3316C70.27 14.5431 69.037 14.1139 67.7667 14.1139C66.4963 14.1139 65.2633 14.5431 64.2683 15.3316C63.2733 16.1201 62.5748 17.2216 62.2864 18.4568H52.4257C52.1466 17.5783 51.5946 16.8113 50.8497 16.2669C50.1048 15.7225 49.2057 15.4291 48.2825 15.4291C47.3594 15.4291 46.4603 15.7225 45.7153 16.2669C44.9704 16.8113 44.4185 17.5783 44.1394 18.4568H33.3069C33.0043 17.7068 32.4497 17.0853 31.7383 16.699C31.0269 16.3126 30.2031 16.1855 29.408 16.3393C28.613 16.4932 27.8963 16.9185 27.3811 17.5423C26.8658 18.166 26.584 18.9494 26.584 19.758C26.584 20.5665 26.8658 21.3499 27.3811 21.9736C27.8963 22.5974 28.613 23.0227 29.408 23.1766C30.2031 23.3304 31.0269 23.2033 31.7383 22.8169C32.4497 22.4306 33.0043 21.8091 33.3069 21.0591H44.1243C44.4034 21.9376 44.9554 22.7046 45.7003 23.249C46.4452 23.7934 47.3443 24.0868 48.2675 24.0868C49.1906 24.0868 50.0897 23.7934 50.8346 23.249C51.5796 22.7046 52.1315 21.9376 52.4106 21.0591H62.2864C62.5748 22.2943 63.2733 23.3958 64.2683 24.1843C65.2633 24.9729 66.4963 25.402 67.7667 25.402C69.037 25.402 70.27 24.9729 71.265 24.1843C72.26 23.3958 72.9585 22.2943 73.2469 21.0591H75.311C75.5659 21.7054 76.0098 22.26 76.5848 22.651C77.1598 23.0419 77.8394 23.251 78.5351 23.251C79.2308 23.251 79.9103 23.0419 80.4854 22.651C81.0604 22.26 81.5043 21.7054 81.7592 21.0591H83.4466C83.6808 21.6459 84.0707 22.1578 84.5744 22.5399C85.0782 22.9219 85.6767 23.1597 86.3056 23.2276C86.9346 23.2955 87.5702 23.1909 88.144 22.9252C88.7179 22.6594 89.2084 22.2425 89.5628 21.7193C89.9171 21.196 90.1219 20.5863 90.1551 19.9555C90.1884 19.3248 90.0488 18.6969 89.7514 18.1395C89.454 17.582 89.01 17.116 88.4672 16.7916C87.9244 16.4672 87.3033 16.2966 86.6707 16.2983V16.2757ZM87.5596 19.7504C87.5596 19.9278 87.5069 20.1011 87.408 20.2484C87.3092 20.3958 87.1687 20.5105 87.0045 20.578C86.8402 20.6455 86.6596 20.6628 86.4855 20.6277C86.3114 20.5925 86.1517 20.5065 86.0267 20.3806C85.9016 20.2547 85.8168 20.0945 85.7831 19.9204C85.7494 19.7463 85.7682 19.5661 85.8372 19.4027C85.9062 19.2393 86.0223 19.1 86.1707 19.0026C86.3191 18.9052 86.4931 18.8539 86.6707 18.8554C86.9072 18.8574 87.1333 18.9526 87.2997 19.1202C87.4662 19.2878 87.5596 19.5144 87.5596 19.7504ZM79.4315 19.7504C79.4315 19.9274 79.3789 20.1005 79.2804 20.2477C79.1819 20.3949 79.0419 20.5096 78.8781 20.5773C78.7143 20.6451 78.5341 20.6628 78.3602 20.6282C78.1863 20.5937 78.0266 20.5085 77.9012 20.3833C77.7759 20.2581 77.6905 20.0987 77.6559 19.925C77.6213 19.7514 77.6391 19.5715 77.7069 19.4079C77.7747 19.2444 77.8896 19.1046 78.0371 19.0063C78.1845 18.9079 78.3578 18.8554 78.5351 18.8554C78.6528 18.8554 78.7694 18.8786 78.8781 18.9236C78.9869 18.9685 79.0857 19.0345 79.169 19.1176C79.2522 19.2007 79.3182 19.2993 79.3633 19.4079C79.4083 19.5165 79.4315 19.6329 79.4315 19.7504ZM70.8138 19.7504C70.8063 20.3438 70.6233 20.9217 70.2877 21.4115C69.9522 21.9012 69.479 22.281 68.9278 22.5029C68.3766 22.7248 67.772 22.7791 67.19 22.6588C66.608 22.5385 66.0746 22.2491 65.6569 21.8269C65.2393 21.4047 64.956 20.8686 64.8428 20.286C64.7295 19.7035 64.7914 19.1006 65.0205 18.553C65.2496 18.0055 65.6358 17.5378 66.1305 17.2089C66.6252 16.88 67.2062 16.7044 67.8006 16.7044C68.6031 16.7143 69.3695 17.0396 69.9335 17.6097C70.4976 18.1799 70.8138 18.949 70.8138 19.7504ZM50.0377 19.7504C50.0377 20.0985 49.9343 20.4388 49.7406 20.7282C49.547 21.0176 49.2717 21.2432 48.9496 21.3764C48.6275 21.5096 48.273 21.5445 47.9311 21.4765C47.5892 21.4086 47.2751 21.241 47.0286 20.9949C46.782 20.7488 46.6142 20.4352 46.5461 20.0938C46.4781 19.7524 46.513 19.3985 46.6465 19.0769C46.7799 18.7553 47.0058 18.4805 47.2957 18.2871C47.5856 18.0937 47.9264 17.9905 48.275 17.9905C48.7425 17.9905 49.1909 18.1759 49.5214 18.506C49.852 18.836 50.0377 19.2837 50.0377 19.7504ZM30.0828 20.6454C29.9055 20.6454 29.7322 20.5929 29.5848 20.4946C29.4373 20.3963 29.3224 20.2565 29.2546 20.0929C29.1867 19.9294 29.169 19.7494 29.2036 19.5758C29.2382 19.4022 29.3235 19.2427 29.4489 19.1176C29.5743 18.9924 29.734 18.9072 29.9079 18.8726C30.0818 18.8381 30.262 18.8558 30.4258 18.9236C30.5896 18.9913 30.7296 19.106 30.8281 19.2532C30.9266 19.4004 30.9792 19.5734 30.9792 19.7504C30.9792 19.868 30.956 19.9843 30.911 20.0929C30.8659 20.2015 30.7999 20.3002 30.7167 20.3833C30.6334 20.4664 30.5346 20.5323 30.4258 20.5773C30.3171 20.6223 30.2005 20.6454 30.0828 20.6454Z" fill="#489742"/>
<path d="M65.2092 7.21811e-05C64.5176 0.00794269 63.8439 0.220938 63.2739 0.611987C62.7038 1.00304 62.2631 1.55448 62.0077 2.19623H52.3127C52.0118 1.44913 51.4598 0.829906 50.7515 0.444818C50.0432 0.0597302 49.2227 -0.0672033 48.4309 0.0858025C47.639 0.238808 46.9252 0.662212 46.412 1.28335C45.8987 1.90448 45.618 2.68461 45.618 3.48985C45.618 4.29509 45.8987 5.07522 46.412 5.69636C46.9252 6.31749 47.639 6.7409 48.4309 6.89391C49.2227 7.04691 50.0432 6.91998 50.7515 6.53489C51.4598 6.1498 52.0118 5.53057 52.3127 4.78348H62.0077C62.2457 5.36815 62.6389 5.87703 63.1447 6.25549C63.6506 6.63394 64.2502 6.86768 64.8791 6.93161C65.508 6.99554 66.1425 6.88723 66.7144 6.61833C67.2863 6.34943 67.774 5.93009 68.1253 5.40532C68.4765 4.88056 68.6779 4.27019 68.7079 3.63975C68.738 3.00932 68.5954 2.38262 68.2956 1.82696C67.9959 1.27129 67.5502 0.807635 67.0064 0.485775C66.4626 0.163915 65.8413 -0.00399532 65.2092 7.21811e-05ZM66.1056 3.47481C66.1056 3.65183 66.053 3.82487 65.9545 3.97205C65.856 4.11923 65.716 4.23395 65.5522 4.30169C65.3884 4.36943 65.2082 4.38716 65.0343 4.35262C64.8604 4.31809 64.7007 4.23285 64.5753 4.10768C64.4499 3.98251 64.3646 3.82303 64.33 3.64942C64.2954 3.4758 64.3131 3.29585 64.381 3.13231C64.4488 2.96876 64.5637 2.82898 64.7112 2.73064C64.8586 2.63229 65.0319 2.5798 65.2092 2.5798C65.4469 2.5798 65.6749 2.6741 65.8431 2.84194C66.0112 3.00979 66.1056 3.23744 66.1056 3.47481ZM49.0886 4.36982C48.9101 4.37581 48.7339 4.32846 48.5826 4.23383C48.4313 4.1392 48.3117 4.0016 48.2392 3.83868C48.1667 3.67575 48.1446 3.49493 48.1757 3.31938C48.2068 3.14383 48.2897 2.98156 48.4138 2.85336C48.5379 2.72516 48.6975 2.63689 48.8722 2.59984C49.0468 2.5628 49.2286 2.57868 49.3941 2.64545C49.5597 2.71221 49.7015 2.82682 49.8014 2.97459C49.9013 3.12235 49.9547 3.29654 49.9548 3.47481C49.955 3.70706 49.8647 3.93027 49.703 4.09727C49.5414 4.26428 49.321 4.36201 49.0886 4.36982Z" fill="#1E539C"/>
<path d="M77.3901 7.06236C76.6966 7.06555 76.0197 7.27465 75.4455 7.66305C74.8714 8.05145 74.426 8.60158 74.1659 9.24347H63.1753C62.9191 8.59958 62.4751 8.04733 61.901 7.65823C61.3268 7.26913 60.6488 7.06111 59.9549 7.06111C59.261 7.06111 58.583 7.26913 58.0089 7.65823C57.4347 8.04733 56.9908 8.59958 56.7345 9.24347H40.5687C40.2677 8.49425 39.7148 7.87305 39.005 7.48654C38.2952 7.10003 37.4727 6.97233 36.6788 7.12537C35.885 7.27842 35.1693 7.70265 34.6546 8.32522C34.1399 8.94779 33.8584 9.72985 33.8584 10.5371C33.8584 11.3443 34.1399 12.1264 34.6546 12.749C35.1693 13.3715 35.885 13.7958 36.6788 13.9488C37.4727 14.1019 38.2952 13.9742 39.005 13.5877C39.7148 13.2011 40.2677 12.5799 40.5687 11.8307H56.7345C56.9908 12.4746 57.4347 13.0269 58.0089 13.416C58.583 13.8051 59.261 14.0131 59.9549 14.0131C60.6488 14.0131 61.3268 13.8051 61.901 13.416C62.4751 13.0269 62.9191 12.4746 63.1753 11.8307H74.1659C74.4013 12.4165 74.792 12.9272 75.2961 13.308C75.8002 13.6888 76.3986 13.9254 77.0272 13.9923C77.6558 14.0591 78.2908 13.9538 78.8639 13.6876C79.4371 13.4214 79.9268 13.0044 80.2805 12.4813C80.6342 11.9582 80.8385 11.3488 80.8715 10.7185C80.9045 10.0882 80.7649 9.46085 80.4678 8.90378C80.1707 8.34671 79.7272 7.88097 79.1849 7.55654C78.6427 7.23212 78.0222 7.06128 77.3901 7.06236ZM78.2865 10.5296C78.2865 10.7066 78.2339 10.8796 78.1354 11.0268C78.0369 11.174 77.8969 11.2887 77.7331 11.3565C77.5693 11.4242 77.3891 11.4419 77.2152 11.4074C77.0413 11.3729 76.8816 11.2876 76.7562 11.1624C76.6308 11.0373 76.5454 10.8778 76.5109 10.7042C76.4763 10.5306 76.494 10.3506 76.5619 10.1871C76.6297 10.0235 76.7446 9.88375 76.892 9.7854C77.0394 9.68706 77.2128 9.63457 77.3901 9.63457C77.6278 9.63457 77.8558 9.72886 78.0239 9.89671C78.192 10.0646 78.2865 10.2922 78.2865 10.5296ZM60.8476 10.5296C60.8476 10.7066 60.795 10.8796 60.6965 11.0268C60.598 11.174 60.458 11.2887 60.2942 11.3565C60.1304 11.4242 59.9501 11.4419 59.7763 11.4074C59.6024 11.3729 59.4426 11.2876 59.3173 11.1624C59.1919 11.0373 59.1065 10.8778 59.0719 10.7042C59.0374 10.5306 59.0551 10.3506 59.1229 10.1871C59.1908 10.0235 59.3057 9.88375 59.4531 9.7854C59.6005 9.68706 59.7738 9.63457 59.9511 9.63457C60.1889 9.63457 60.4169 9.72886 60.585 9.89671C60.7531 10.0646 60.8476 10.2922 60.8476 10.5296ZM38.2485 10.5296C38.2485 10.7066 38.196 10.8796 38.0975 11.0268C37.999 11.174 37.859 11.2887 37.6952 11.3565C37.5314 11.4242 37.3511 11.4419 37.1772 11.4074C37.0033 11.3729 36.8436 11.2876 36.7183 11.1624C36.5929 11.0373 36.5075 10.8778 36.4729 10.7042C36.4383 10.5306 36.4561 10.3506 36.5239 10.1871C36.5918 10.0235 36.7067 9.88375 36.8541 9.7854C37.0015 9.68706 37.1748 9.63457 37.3521 9.63457C37.5899 9.63457 37.8179 9.72886 37.986 9.89671C38.1541 10.0646 38.2485 10.2922 38.2485 10.5296Z" fill="#F7BA25"/>
<path d="M117.684 30.9644C117.684 30.8967 114.181 24.2706 112.29 21.2697C111.619 20.2228 110.711 19.3475 109.64 18.714C108.568 18.0806 107.363 17.7065 106.121 17.622H97.006V13.2447C97.006 12.1835 96.5838 11.1658 95.8322 10.4154C95.0807 9.66504 94.0613 9.24348 92.9985 9.24348H85.1566C84.813 9.24348 84.4834 9.37978 84.2404 9.62238C83.9974 9.86498 83.8609 10.194 83.8609 10.5371C83.8609 10.8802 83.9974 11.2092 84.2404 11.4518C84.4834 11.6944 84.813 11.8307 85.1566 11.8307H92.9985C93.3708 11.8366 93.7261 11.988 93.988 12.2523C94.2499 12.5166 94.3977 12.8729 94.3996 13.2447V35.1762C94.3976 35.5519 94.2467 35.9115 93.98 36.1765C93.7132 36.4414 93.3522 36.5901 92.9759 36.5901H63.2958C63.1257 36.5901 62.9572 36.6236 62.8 36.6886C62.6428 36.7536 62.4999 36.8489 62.3796 36.969C62.2593 37.0891 62.1639 37.2318 62.0988 37.3887C62.0336 37.5457 62.0001 37.7139 62.0001 37.8838C62.0001 38.0536 62.0336 38.2219 62.0988 38.3788C62.1639 38.5358 62.2593 38.6784 62.3796 38.7985C62.4999 38.9186 62.6428 39.0139 62.8 39.0789C62.9572 39.1439 63.1257 39.1774 63.2958 39.1774H92.9985C94.0613 39.1774 95.0807 38.7558 95.8322 38.0055C96.5838 37.2551 97.006 36.2374 97.006 35.1762V20.2092H106.083C106.897 20.2767 107.684 20.532 108.382 20.9548C109.08 21.3777 109.67 21.9567 110.106 22.646C111.469 24.8121 113.805 29.1593 114.822 31.0697H105.699C105.314 31.0697 104.944 30.9167 104.671 30.6445C104.398 30.3723 104.245 30.0031 104.245 29.6181V24.4436C104.259 24.2659 104.236 24.0874 104.177 23.9191C104.118 23.7509 104.025 23.5965 103.904 23.4658C103.782 23.3351 103.635 23.2308 103.472 23.1595C103.308 23.0882 103.132 23.0514 102.953 23.0514C102.775 23.0514 102.598 23.0882 102.435 23.1595C102.271 23.2308 102.124 23.3351 102.003 23.4658C101.882 23.5965 101.789 23.7509 101.73 23.9191C101.671 24.0874 101.648 24.2659 101.661 24.4436V29.6181C101.661 30.6879 102.087 31.7141 102.844 32.4713C103.601 33.2285 104.628 33.6549 105.699 33.6569H115.228V39.8618C115.235 40.0555 115.204 40.2487 115.135 40.43C115.066 40.6112 114.961 40.7768 114.827 40.917C114.693 41.0572 114.532 41.1692 114.354 41.2463C114.176 41.3234 113.984 41.3641 113.79 41.366H108.449C108.132 40.0231 107.332 38.8433 106.201 38.0509C105.07 37.2584 103.686 36.9085 102.314 37.0677C100.941 37.2269 99.6751 37.8842 98.7561 38.9144C97.8371 39.9447 97.3294 41.2763 97.3294 42.6559C97.3294 44.0355 97.8371 45.367 98.7561 46.3973C99.6751 47.4276 100.941 48.0848 102.314 48.2441C103.686 48.4033 105.07 48.0534 106.201 47.2609C107.332 46.4684 108.132 45.2886 108.449 43.9457H113.79C114.324 43.9448 114.854 43.8382 115.347 43.632C115.84 43.4259 116.288 43.1243 116.664 42.7447C117.04 42.365 117.337 41.9149 117.538 41.4201C117.739 40.9253 117.84 40.3957 117.835 39.8618V31.5886C117.838 31.3712 117.786 31.1565 117.684 30.9644ZM106.015 42.6371C106.015 43.2321 105.839 43.8137 105.508 44.3085C105.177 44.8032 104.706 45.1888 104.155 45.4165C103.605 45.6442 102.999 45.7038 102.414 45.5877C101.83 45.4716 101.293 45.1851 100.872 44.7644C100.45 44.3436 100.163 43.8076 100.047 43.224C99.9307 42.6404 99.9904 42.0355 100.218 41.4858C100.447 40.9361 100.833 40.4662 101.328 40.1357C101.824 39.8051 102.406 39.6286 103.002 39.6286C103.798 39.6403 104.557 39.961 105.12 40.5227C105.683 41.0844 106.004 41.8428 106.015 42.6371Z" fill="#F7BA25"/>
</svg>
